<svg width="1472" height="976" viewBox="0 0 1472 976" fill="none" xmlns="http://www.w3.org/2000/svg">
<circle cx="1021.5" cy="493.5" r="370.5" fill="#89D1F0"/>
<mask id="mask0_437_7" style="mask-type:alpha" maskUnits="userSpaceOnUse" x="651" y="123" width="742" height="741">
<circle cx="1021.5" cy="493.5" r="370.5" fill="#89D1F0"/>
</mask>
<g mask="url(#mask0_437_7)">
<path d="M951.754 431.817C948.126 431.414 941.675 431.817 935.628 434.236C929.581 433.43 917.244 430.366 916.277 424.56C915.067 417.304 913.454 409.24 918.292 401.984C923.13 394.727 924.743 384.245 924.34 380.616C923.936 376.988 929.177 373.36 941.272 377.794C953.367 382.229 967.074 380.213 968.284 373.763C969.493 367.312 971.106 356.427 962.639 349.977C954.173 343.526 952.561 341.107 956.995 341.51C961.43 341.913 971.912 343.929 972.315 340.704C972.718 337.479 970.299 334.657 973.121 336.269C975.944 337.882 987.635 336.672 989.651 329.819C991.667 322.965 999.73 326.997 1001.75 322.965C1003.76 318.934 1003.36 316.111 1007.39 314.902C1011.42 313.693 1013.44 308.855 1017.87 308.452C1022.31 308.048 1022.71 302.404 1023.52 299.582C1024.32 296.76 1027.95 297.566 1029.97 300.792C1031.98 304.017 1032.79 307.242 1038.03 305.226C1043.27 303.21 1046.5 303.614 1048.11 305.629C1049.72 307.645 1056.98 305.629 1060.2 303.21C1063.43 300.792 1065.44 299.985 1069.48 302.001C1073.51 304.017 1077.54 297.163 1077.54 293.938C1077.54 290.713 1072.7 283.053 1077.54 281.843C1082.38 280.634 1082.38 285.472 1085.2 283.456C1088.02 281.44 1087.62 281.037 1086.41 277.812C1085.2 274.586 1077.54 272.974 1073.91 265.717C1070.28 258.46 1063.43 253.219 1067.86 247.575C1072.3 241.931 1075.12 236.69 1072.7 235.48C1070.28 234.271 1066.65 235.48 1065.44 238.302C1064.23 241.125 1064.23 247.575 1058.99 248.784C1053.75 249.994 1053.75 260.476 1056.17 263.298C1058.59 266.12 1065.44 266.523 1060.61 272.571C1055.77 278.618 1061.01 289.1 1056.57 291.116C1052.14 293.132 1046.09 293.132 1042.87 291.922C1039.64 290.713 1034 280.231 1033.59 277.409C1033.19 274.586 1033.59 272.974 1028.35 275.393C1023.11 277.812 1020.69 284.665 1014.65 281.037C1008.6 277.409 1008.6 266.523 1011.02 262.492C1013.44 258.46 1017.07 253.219 1024.73 251.203C1032.39 249.188 1035.21 234.674 1040.85 229.03C1046.5 223.386 1048.51 213.71 1061.82 211.291C1075.12 208.872 1091.25 212.904 1096.08 214.919C1100.92 216.935 1106.97 227.82 1115.84 222.579C1124.71 217.338 1127.53 209.275 1134.38 208.066C1141.24 206.856 1141.64 196.374 1151.32 198.39C1160.99 200.406 1167.44 207.259 1169.06 202.018C1170.67 196.777 1155.75 182.667 1150.11 182.667C1144.46 182.667 1136.8 177.426 1131.56 171.782C1126.32 166.138 1118.66 166.944 1115.84 158.478C1113.02 150.011 1122.29 153.237 1125.92 153.64C1129.55 154.043 1131.56 155.656 1129.14 151.221C1126.72 146.786 1124.3 146.383 1120.68 145.577C1117.05 144.77 1111.81 143.158 1109.79 140.739C1107.78 138.32 1103.74 130.257 1110.6 127.031C1116.08 124.451 1238.13 156.596 1298.47 172.991L1437.15 479.389L1420.62 532.203L1404.9 530.187L1396.03 524.946C1393.61 521.586 1387.97 514.383 1384.74 512.448C1380.71 510.029 1377.49 508.014 1376.68 501.563C1375.87 495.113 1372.25 474.552 1368.21 469.714C1364.18 464.876 1358.94 453.587 1352.89 449.153C1348.06 445.605 1343.35 440.687 1341.61 438.671C1336.77 433.43 1334.75 435.446 1333.54 440.283C1332.33 445.121 1324.27 445.928 1321.04 449.556C1317.82 453.184 1314.59 453.184 1310.16 453.184C1305.72 453.184 1308.14 451.169 1304.52 448.346C1300.89 445.524 1302.9 449.153 1296.05 454.394C1289.2 459.635 1279.52 452.378 1278.71 449.959C1277.91 447.54 1273.07 440.687 1267.43 440.687C1261.78 440.687 1263.8 443.105 1265.01 451.975C1266.22 460.844 1269.04 453.991 1278.31 465.279C1287.58 476.567 1294.84 473.342 1298.06 470.117C1301.29 466.892 1295.65 456.41 1302.9 455.603C1310.16 454.797 1305.32 457.619 1309.35 462.054C1313.38 466.488 1315 464.07 1320.24 467.698C1325.38 471.26 1324.7 479.096 1323.91 488.155L1323.87 488.662C1323.06 497.935 1317.01 514.464 1313.79 519.705C1310.56 524.946 1305.32 539.863 1299.27 540.669C1293.23 541.475 1285.16 556.392 1279.92 563.246C1274.68 570.1 1269.04 573.325 1262.18 572.115C1255.33 570.906 1255.73 552.361 1254.52 546.313C1253.31 540.266 1247.27 532.606 1240.41 530.59C1233.56 528.574 1229.13 519.302 1227.51 511.642C1225.9 503.982 1209.77 493.5 1204.13 486.243C1198.49 478.986 1197.68 482.615 1193.65 483.018C1189.62 483.421 1190.02 483.018 1183.17 474.552C1177.68 467.779 1180.07 473.611 1181.96 477.374C1188 487.99 1202.03 510.513 1209.77 515.674C1219.45 522.124 1218.64 529.381 1222.27 538.653C1225.9 547.926 1232.75 547.523 1235.98 556.392C1239.2 565.262 1244.45 564.858 1251.7 570.503C1258.96 576.147 1256.14 587.032 1273.88 583C1291.61 578.969 1290.81 553.167 1302.1 563.246C1313.38 573.325 1283.95 630.17 1279.52 636.62C1275.09 643.071 1242.43 687.418 1237.99 695.481C1233.56 703.544 1233.96 708.785 1235.17 718.058C1236.38 727.33 1235.98 739.425 1232.35 746.682C1228.72 753.938 1204.13 768.452 1198.89 772.887C1193.65 777.321 1193.65 778.934 1192.84 784.175C1192.03 789.416 1187.2 796.27 1176.72 798.286C1166.23 800.301 1169.46 803.123 1148.09 818.04C1126.72 832.957 1110.19 831.747 1094.07 835.779C1077.94 839.811 1082.38 832.957 1070.69 827.716C1058.99 822.475 1065.04 813.605 1058.59 809.171C1052.14 804.736 1039.24 788.61 1048.11 783.369C1056.98 778.128 1062.22 771.677 1060.61 764.421C1058.99 757.164 1052.14 752.729 1050.53 740.231C1048.91 727.733 1036.42 726.927 1029.56 718.461C1022.71 709.995 1027.14 707.979 1032.39 697.497C1037.63 687.015 1030.77 680.564 1024.73 677.742C1018.68 674.92 1001.75 680.967 997.311 670.485C992.876 660.003 977.153 662.422 968.284 662.825C959.414 663.228 952.964 678.548 941.272 671.292C929.581 664.035 918.292 667.26 900.957 667.26C883.621 667.26 873.542 646.296 865.882 637.83C858.222 629.363 858.221 619.688 850.561 612.028C842.901 604.368 833.226 580.582 840.079 574.937C846.933 569.293 846.53 557.602 847.337 549.539C848.143 541.475 839.677 530.187 846.934 526.559C854.19 522.93 860.238 510.432 865.076 501.563C869.913 492.694 878.38 488.662 890.474 485.437C902.569 482.212 899.747 473.745 901.36 468.101C902.972 462.457 907.81 453.184 914.261 452.378C920.711 451.572 925.146 446.734 926.758 443.509C928.371 440.283 931.999 438.671 934.418 438.671C936.837 438.671 942.885 442.702 954.979 443.105C967.074 443.509 957.398 439.477 976.75 433.43C996.101 427.382 1014.24 431.414 1028.76 429.398C1043.27 427.382 1040.85 439.074 1040.05 449.959C1039.24 460.844 1050.93 462.457 1061.41 463.263C1071.89 464.07 1080.76 469.714 1088.42 475.761C1096.08 481.808 1100.12 478.583 1099.71 470.52C1099.31 462.457 1106.57 451.975 1116.24 458.829C1125.92 465.682 1150.51 469.714 1158.17 465.682C1165.83 461.651 1165.83 460.844 1180.34 458.022C1194.86 455.2 1185.58 431.817 1186.79 421.335C1188 410.853 1168.25 424.56 1150.51 425.77C1132.77 426.979 1127.13 406.418 1127.93 402.387C1128.74 398.355 1123.5 395.533 1117.45 395.936C1111.4 396.339 1108.58 403.193 1108.98 405.612C1109.39 408.031 1111.81 411.659 1115.03 412.062C1118.26 412.466 1119.06 416.094 1118.26 419.722C1117.45 423.351 1114.63 420.126 1114.23 422.948C1113.82 425.77 1113.82 428.592 1108.98 428.592C1104.15 428.592 1103.74 428.189 1103.34 422.141C1103.02 417.304 1098.91 413.406 1096.89 412.062C1094.2 410.719 1088.75 406.499 1088.42 400.371C1088.02 392.711 1083.59 390.695 1079.55 386.261C1075.52 381.826 1070.28 383.438 1067.06 381.423C1063.83 379.407 1061.82 376.182 1058.99 371.344C1056.17 366.506 1050.12 366.103 1047.3 366.909C1044.48 367.715 1043.67 372.956 1045.29 376.182C1046.9 379.407 1059.8 387.873 1065.85 391.502C1071.89 395.13 1079.96 402.79 1082.38 404.806C1084.8 406.821 1083.59 406.418 1082.38 407.628C1081.17 408.837 1079.55 405.612 1076.73 404.806C1073.91 403.999 1073.51 406.015 1072.3 408.837C1071.09 411.659 1075.52 410.047 1077.14 413.272C1078.75 416.497 1074.31 421.335 1071.09 424.157C1067.86 426.979 1070.28 435.446 1065.85 434.236C1061.41 433.027 1061.41 431.817 1053.35 429.398C1045.29 426.979 1046.9 422.948 1049.32 423.351C1051.74 423.754 1055.77 423.754 1063.83 420.126C1071.89 416.497 1065.85 412.869 1064.64 408.031C1063.43 403.193 1061.82 402.387 1057.78 401.58C1053.75 400.774 1045.69 397.952 1040.85 394.324C1036.01 390.695 1035.21 382.229 1029.97 378.601C1024.73 374.972 1019.08 379.81 1016.66 383.438C1014.24 387.067 1008.6 385.857 1000.94 383.438C993.279 381.02 998.117 389.889 988.441 394.324C978.765 398.758 972.315 412.466 969.09 419.722C965.864 426.979 955.382 432.22 951.754 431.817Z" fill="#BAE88F"/>
<path d="M739.694 755.551C735.823 759.422 724.911 760.658 719.939 760.792C702.872 744.935 668.739 713.542 668.739 714.832C668.739 716.123 634.874 624.257 617.941 578.163L605.847 468.101L619.554 344.332L659.466 277.005L696.96 241.931L770.334 190.327L926.355 124.209L939.256 129.854C941.003 131.601 945.223 135.337 948.126 136.304C951.754 137.514 952.157 137.514 954.979 139.126C957.801 140.739 954.576 141.948 955.382 144.367C956.189 146.786 959.817 146.786 961.833 146.786C963.849 146.786 965.058 147.189 966.671 148.399C968.283 149.608 967.477 151.221 965.865 152.834C964.252 154.446 960.22 154.043 955.786 154.849C951.351 155.656 945.304 153.64 941.675 153.64C938.047 153.64 932.403 154.849 928.774 155.252C925.146 155.656 921.921 157.268 919.502 158.075C917.083 158.881 913.454 162.509 913.051 163.719C912.648 164.928 905.391 170.169 902.166 170.976C898.941 171.782 899.747 172.185 897.328 173.798C894.909 175.41 894.909 177.023 893.297 179.039C891.684 181.054 888.862 181.458 884.83 182.667C880.799 183.877 881.605 184.683 878.783 185.892C875.961 187.102 874.348 191.133 872.736 194.762C871.123 198.39 868.704 196.777 865.882 197.181C863.06 197.584 857.819 198.39 857.012 200.003C856.206 201.615 851.368 204.437 848.949 204.034C846.53 203.631 846.127 204.437 843.305 206.453C840.483 208.469 840.886 204.841 841.693 202.422C842.499 200.003 844.112 198.793 845.724 197.181C847.337 195.568 850.562 191.536 852.981 191.133C855.4 190.73 858.625 188.714 860.641 186.699C862.657 184.683 866.285 185.086 869.107 184.683C871.929 184.28 873.139 179.845 875.154 179.845C877.17 179.845 879.589 179.442 882.008 175.007C884.427 170.572 874.348 174.604 872.736 176.217C871.123 177.829 864.672 178.232 861.85 178.635C859.028 179.039 857.012 181.861 854.997 184.28C852.981 186.699 846.53 187.102 847.74 184.28C848.949 181.458 843.708 181.458 840.886 182.264C838.064 183.07 833.629 186.295 830.404 187.908C827.179 189.521 818.713 196.777 815.891 198.793C813.069 200.809 804.199 211.291 802.183 212.501C800.168 213.71 796.539 218.951 800.168 218.951C803.796 218.951 806.215 215.323 808.634 213.71C811.053 212.097 815.084 208.066 819.116 204.841C823.147 201.615 828.388 199.6 835.242 197.584C842.096 195.568 836.855 201.615 836.452 202.422C836.048 203.228 834.436 208.066 831.211 209.275C827.985 210.485 825.566 212.501 822.744 215.323C819.922 218.145 822.341 218.951 826.373 216.935C830.404 214.919 831.614 214.516 831.211 218.145C830.807 221.773 821.132 230.239 817.1 232.255C813.069 234.271 809.037 239.109 807.424 243.947C805.812 248.785 805.409 257.251 801.377 258.863C797.345 260.476 793.717 268.942 791.701 269.346C789.686 269.749 786.46 273.377 784.444 275.796C782.429 278.215 785.251 278.618 786.46 281.037C787.67 283.456 785.251 283.859 780.816 288.697C776.381 293.535 770.334 291.922 772.753 290.31C775.172 288.697 772.753 287.084 770.334 285.069C767.915 283.053 769.528 277.812 773.559 277.812C777.591 277.812 780.816 272.571 784.444 269.749C788.073 266.927 786.057 263.701 784.444 261.686C782.832 259.67 777.591 258.057 772.753 258.863C767.915 259.67 765.899 268.136 765.093 270.958C764.287 273.78 761.061 275.393 759.449 277.005C757.836 278.618 758.643 281.843 762.271 283.859C765.899 285.875 763.077 287.084 762.674 289.503C762.271 291.922 752.998 290.31 750.176 291.116C747.354 291.922 744.129 293.535 744.532 290.31C744.935 287.084 749.37 287.891 752.192 285.069C755.014 282.247 747.354 284.262 744.532 283.859C741.71 283.456 738.485 286.278 737.678 287.891C736.872 289.503 736.872 291.922 732.437 292.729C728.003 293.535 728.809 295.954 724.374 297.97C719.94 299.985 714.699 311.274 709.054 318.934C703.41 326.594 692.525 320.143 690.912 319.74C689.622 319.417 687.956 317.724 687.284 316.918L665.109 324.981C659.465 362.743 648.983 438.671 652.208 440.284C656.24 442.299 664.304 451.975 662.288 456.813C660.271 461.651 662.691 472.939 662.288 478.583C661.885 484.227 668.335 494.306 666.32 501.16C664.304 508.014 669.947 523.334 669.544 526.559C669.141 529.784 672.366 543.894 677.204 547.926C682.042 551.958 683.252 568.89 685.67 574.534C688.089 580.178 684.461 587.435 683.252 589.048C682.042 590.661 685.671 600.336 690.912 603.965C696.153 607.593 701.394 618.478 707.844 623.719C714.295 628.96 716.714 638.636 722.358 642.668C728.002 646.699 746.547 670.485 747.354 676.533C748.16 682.58 750.982 688.224 747.354 692.256C743.725 696.287 744.128 701.528 744.531 705.963C744.935 710.398 751.788 718.058 753.804 725.315C755.82 732.571 744.531 750.713 739.694 755.551Z" fill="#BAE88F"/>
<path d="M1038.03 172.185C1034.4 171.782 1033.59 172.588 1030.37 174.604C1027.55 175.813 1026.74 174.201 1025.94 175.41C1025.13 176.62 1024.73 179.442 1027.55 179.845C1030.37 180.248 1032.79 183.877 1036.01 186.699C1039.24 189.521 1043.27 183.473 1046.5 183.07C1049.72 182.667 1044.48 177.829 1045.29 175.41C1046.09 172.991 1041.66 172.588 1038.03 172.185Z" fill="#F1F1F1"/>
<path d="M953.5 312.5C952.5 314 950 316 946.5 316.5C944.5 316.851 940 317 938.5 317C937 317 937 315.5 936 313.5C935 311.5 936 310.5 938.5 309.5C941 308.5 940.5 307 941.5 305C942.5 303 939.5 303 939.5 301C939.5 299 942 298.5 943.5 298.5C945 298.5 947.5 299 948 297C948.5 295 951.5 293.5 953.5 293C955.5 292.5 960.5 295 961 297.5C961.5 300 959.5 300.5 958 301.5C956.5 302.5 956.5 303 957 306.5C957.5 310 954.5 311 953.5 312.5Z" fill="#BAE88F"/>
<path d="M962.639 330.222C959.817 329.416 959.817 329.416 956.188 331.835C953.366 332.641 954.576 330.625 954.576 329.013C954.576 327.4 957.398 326.19 958.204 326.19C959.01 326.19 959.817 323.771 961.026 323.771C962.235 323.771 964.251 323.368 964.654 321.353C965.058 319.337 962.235 320.949 961.026 320.546C959.817 320.143 958.607 320.949 959.01 318.53C959.413 316.112 961.429 316.515 963.445 315.305C965.461 314.096 963.042 313.289 963.445 310.871C963.848 308.452 966.67 308.855 968.686 309.258C970.702 309.661 971.105 305.629 971.105 304.42C971.105 303.211 969.895 302.807 969.895 300.792C969.895 298.776 969.089 298.776 968.283 298.776H968.283C967.476 298.776 965.461 299.985 964.251 299.179C963.042 298.373 964.654 296.357 965.058 295.147C965.461 293.938 963.445 292.729 963.445 291.519C963.445 290.31 961.429 289.503 961.026 287.891C960.623 286.278 962.235 285.875 963.445 284.665C964.654 283.456 964.654 281.843 964.654 279.828C964.654 277.812 966.67 275.796 968.686 275.393C970.702 274.99 975.136 273.78 977.555 275.796C979.974 277.812 975.136 277.409 973.121 279.021C971.105 280.634 974.33 280.634 977.959 281.037C981.587 281.44 979.974 283.456 979.974 285.069C979.974 286.681 976.346 288.697 973.927 290.713C971.508 292.729 975.943 291.116 977.555 292.729C979.168 294.341 979.168 295.954 979.168 298.776C979.168 301.598 981.587 302.404 983.603 303.614C985.618 304.823 984.006 308.048 984.409 311.677C984.812 315.305 990.86 319.74 990.053 322.562C989.247 325.384 988.441 327.4 986.022 326.997C983.603 326.594 976.749 328.206 974.33 330.222C971.911 332.238 965.461 331.028 962.639 330.222Z" fill="#BAE88F"/>
<path d="M936.885 228.277C936.885 226.665 935.676 224.649 933.66 225.052H932.45C931.644 225.052 931.241 225.858 930.435 226.665C929.628 227.471 929.225 227.068 928.016 227.471C926.806 227.874 928.016 229.084 929.225 229.487C930.435 229.89 931.241 229.487 930.435 230.696C929.628 231.906 929.225 231.1 928.016 231.1C926.806 231.1 926 231.1 926 232.712C926 234.325 928.016 233.518 929.225 234.325C930.435 235.131 928.822 235.534 928.016 236.744C927.209 237.953 926 235.937 926 237.55C926 239.163 928.016 239.163 930.435 238.759C932.854 238.356 931.241 240.372 933.66 241.985C936.079 243.597 937.288 241.178 940.917 241.178C944.545 241.178 944.948 239.566 947.77 239.566C950.592 239.566 951.802 239.163 952.608 237.55C953.415 235.937 955.027 236.341 956.237 235.534C957.446 234.728 957.043 233.115 955.43 232.712C953.818 232.309 954.221 230.696 953.415 229.487C952.608 228.277 948.98 228.681 947.77 228.681C946.561 228.681 942.933 228.277 940.514 228.681C938.095 229.084 936.885 229.89 936.885 228.277Z" fill="#BAE88F"/>
<path d="M1171.88 470.52C1173.22 470.386 1175.67 471.165 1174.7 475.358C1173.49 480.599 1173.49 489.468 1177.12 492.29C1180.75 495.113 1186.79 495.516 1187.2 499.144C1187.6 502.773 1188.41 504.788 1190.02 507.207C1191.63 509.626 1195.26 512.448 1191.23 519.705C1187.2 526.962 1179.54 538.653 1180.34 544.701C1181.15 550.748 1180.34 559.214 1185.18 560.021C1190.02 560.827 1194.45 553.167 1195.66 551.554C1196.87 549.942 1200.1 547.926 1202.92 553.973C1205.74 560.021 1206.95 563.246 1204.13 566.874C1201.31 570.503 1198.49 568.084 1197.68 577.356" stroke="#89D1F0" stroke-width="4" stroke-linecap="round"/>
<path d="M1165.83 744.263C1162.2 744.263 1165.43 741.038 1168.65 738.619C1171.07 737.14 1176.15 733.539 1177.12 730.959C1178.33 727.733 1173.49 723.702 1172.68 721.686C1171.88 719.67 1171.47 712.817 1175.91 709.995C1180.34 707.172 1177.52 717.251 1177.92 721.686C1178.33 726.121 1182.36 729.346 1183.57 734.184C1184.78 739.022 1175.51 738.619 1174.3 740.231C1173.09 741.844 1169.46 744.263 1165.83 744.263Z" fill="#89D1F0"/>
<path d="M911.438 216.935C906.197 216.532 890.071 220.564 885.233 223.789C880.798 225.917 877.17 227.82 874.348 229.836C871.526 231.852 864.672 237.496 860.641 236.287C856.609 235.077 858.625 228.224 859.834 222.579C861.044 216.935 869.913 210.082 875.557 205.647C881.202 201.212 887.249 202.825 889.668 200.003C892.087 197.181 900.553 190.73 905.794 189.521C911.035 188.311 915.873 179.442 922.323 176.216C928.774 172.991 929.177 170.572 931.999 164.525C934.821 158.478 946.513 158.478 950.544 159.284C954.576 160.09 958.204 158.478 963.042 157.268C967.88 156.059 981.587 158.478 988.038 158.478C994.488 158.478 996.907 162.912 996.504 169.363C996.101 175.813 978.362 184.28 974.734 185.489C971.105 186.698 958.204 196.374 954.576 203.631C950.947 210.888 916.679 217.338 911.438 216.935Z" fill="#F1F1F1"/>
<path d="M1198.89 734.99C1197.28 736.603 1198.22 739.156 1198.89 740.231C1199.72 743.86 1196.47 746.682 1197.27 751.923C1198.08 757.164 1199.69 754.342 1202.52 751.923C1205.34 749.504 1204.53 744.666 1204.13 739.425C1203.73 734.184 1200.9 732.974 1198.89 734.99Z" fill="#89D1F0"/>
<path d="M1120.68 276.199C1119.06 273.377 1123.5 275.393 1128.34 277.006C1131.56 277.006 1129.95 269.346 1132.77 266.12C1135.59 262.895 1136.4 264.911 1140.03 266.12C1143.66 267.33 1144.46 266.12 1148.9 264.911C1153.33 263.701 1154.54 265.717 1158.57 268.136C1162.6 270.555 1165.02 268.942 1170.26 268.136C1175.51 267.33 1175.91 269.749 1175.51 272.168C1175.1 274.587 1162.2 274.99 1158.98 272.974C1155.75 270.958 1148.49 272.168 1143.25 271.361C1138.01 270.555 1138.01 274.99 1136 277.812C1133.98 280.634 1134.79 279.828 1130.76 281.037C1126.72 282.247 1122.29 279.021 1120.68 276.199Z" fill="#89D1F0"/>
<path d="M1196.87 379.004C1192.03 384.648 1179.94 379.407 1168.65 377.391C1162.6 377.391 1157.36 381.826 1152.53 385.454C1147.69 389.083 1140.03 389.486 1134.79 384.648C1129.55 379.81 1133.58 368.118 1137.61 357.233C1141.64 346.348 1147.28 350.783 1154.54 350.783C1161.8 350.783 1165.83 341.51 1170.26 339.091C1174.7 336.672 1174.7 339.898 1172.68 348.767C1170.67 357.636 1180.34 358.846 1186.79 360.862C1193.24 362.877 1201.71 373.359 1196.87 379.004Z" fill="#89D1F0"/>
<path d="M1248.88 389.083C1242.83 389.083 1241.22 376.988 1240.41 370.134C1237.86 368.656 1232.43 364.974 1231.14 362.071C1229.53 358.443 1221.46 353.202 1216.63 348.767C1211.79 344.332 1214.21 333.85 1219.85 327.803C1225.5 321.756 1229.12 322.965 1231.14 327.803C1233.16 332.641 1226.3 333.85 1229.12 341.107C1231.95 348.364 1237.59 348.767 1245.25 351.186C1252.91 353.605 1251.7 357.636 1250.49 363.684C1249.28 369.731 1262.99 374.972 1264.2 383.035C1265.41 391.098 1254.93 389.083 1248.88 389.083Z" fill="#89D1F0"/>
<path d="M1199.29 698.303C1196.07 700.319 1193.24 698.706 1192.03 691.046C1192.84 684.596 1196.87 681.774 1202.92 680.161C1208.97 678.548 1206.15 681.37 1206.95 687.015C1207.76 692.659 1202.52 696.287 1199.29 698.303Z" fill="#89D1F0"/>
<path d="M961.026 657.987C960.22 660.81 960.22 659.6 957.398 659.197C954.576 657.584 956.995 652.746 956.592 650.731C956.188 648.715 950.947 645.49 952.157 644.28C953.366 643.071 956.995 647.102 960.22 649.118C963.445 651.134 961.833 655.165 961.026 657.987Z" fill="#89D1F0"/>
<path d="M1040.85 750.713C1046.5 749.907 1061.01 745.069 1063.43 742.247C1065.85 739.425 1076.33 733.378 1077.94 732.571C1079.55 731.765 1086 723.702 1086.81 721.283C1087.62 718.864 1090.84 711.204 1094.47 709.591C1098.1 707.979 1098.91 699.513 1101.32 697.094C1103.74 694.675 1114.63 687.821 1121.08 688.627C1127.53 689.434 1134.38 688.627 1139.22 691.449C1144.06 694.271 1146.48 694.675 1148.49 693.465" stroke="#89D1F0" stroke-width="3" stroke-linecap="round"/>
</g>
<mask id="mask1_437_7" style="mask-type:alpha" maskUnits="userSpaceOnUse" x="648" y="123" width="744" height="744">
<circle cx="1020" cy="495" r="372" fill="#89D1F0"/>
</mask>
<g mask="url(#mask1_437_7)">
<g filter="url(#filter0_f_437_7)">
<path d="M807.912 171.309C983.659 531.523 1163.27 621.427 1398.41 411.809L1398.41 549.5C1398.41 549.5 1414.75 649.721 1382 704C1346.79 762.364 1266.5 796.5 1236.5 819C1206.5 841.5 1113 894.5 990 891.5C862.182 876.818 702.501 798 702.501 798L577.912 555.309L649.001 277.5L807.912 171.309Z" fill="url(#paint0_radial_437_7)"/>
</g>
</g>
<defs>
<filter id="filter0_f_437_7" x="548.912" y="142.309" width="882.574" height="778.313" filterUnits="userSpaceOnUse" color-interpolation-filters="sRGB">
<feFlood flood-opacity="0" result="BackgroundImageFix"/>
<feBlend mode="normal" in="SourceGraphic" in2="BackgroundImageFix" result="shape"/>
<feGaussianBlur stdDeviation="14.5" result="effect1_foregroundBlur_437_7"/>
</filter>
<radialGradient id="paint0_radial_437_7" cx="0" cy="0" r="1" gradientUnits="userSpaceOnUse" gradientTransform="translate(1172.49 283.649) rotate(126.739) scale(619.378 879.539)">
<stop stop-color="white" stop-opacity="0"/>
<stop offset="0.796875" stop-color="#323232"/>
<stop offset="1" stop-color="#121212"/>
</radialGradient>
</defs>
</svg>
