<svg width="1920" height="1080" viewBox="0 0 1920 1080" fill="none" xmlns="http://www.w3.org/2000/svg">
<path d="M129.498 854C132.929 863.529 128.72 884.54 138.42 903.505C150.545 927.212 116 927.212 116 953.011C116 978.809 144.825 1024.36 140.479 1049" stroke="black" stroke-width="7"/>
<path d="M1806.5 269C1809.93 278.529 1805.72 299.54 1815.42 318.505C1827.54 342.212 1802 356.701 1802 382.5C1802 408.299 1821.83 439.364 1817.48 464" stroke="black" stroke-width="7"/>
<path d="M1689.5 806C1692.93 815.529 1688.72 836.54 1698.42 855.505C1710.54 879.212 1693 893.201 1693 919C1693 944.799 1704.83 976.364 1700.48 1001" stroke="black" stroke-width="7"/>
<path d="M1372.5 854C1375.93 863.529 1358.3 891.535 1368 910.5C1380.12 934.207 1391.5 933.701 1391.5 959.5C1391.5 985.299 1387.83 1024.36 1383.48 1049" stroke="black" stroke-width="7"/>
<path d="M1542.5 416C1545.93 425.529 1529.3 449.035 1539 468C1551.12 491.707 1569.5 512.701 1569.5 538.5C1569.5 564.299 1557.83 586.364 1553.48 611" stroke="black" stroke-width="7"/>
<path d="M1365.5 196C1368.93 205.529 1348.8 233.035 1358.5 252C1370.62 275.707 1392 282.701 1392 308.5C1392 334.299 1380.83 366.364 1376.48 391" stroke="black" stroke-width="7"/>
<path d="M81.4975 192C84.9291 201.529 59.8 228.535 69.5 247.5C81.625 271.207 109 279.701 109 305.5C109 331.299 96.8253 362.364 92.4786 387" stroke="black" stroke-width="7"/>
<path d="M301.498 456C304.929 465.529 300.72 486.54 310.42 505.505C322.545 529.212 294.5 546.701 294.5 572.5C294.5 598.299 316.825 626.364 312.479 651" stroke="black" stroke-width="7"/>
<path d="M502.498 192C505.929 201.529 501.72 222.54 511.42 241.505C523.545 265.212 507 284.201 507 310C507 335.799 517.825 362.364 513.479 387" stroke="black" stroke-width="7"/>
<path d="M517.498 875C520.929 884.529 500.8 934.034 510.5 953C522.625 976.707 533.5 976.701 533.5 1002.5C533.5 1028.3 532.825 1045.36 528.479 1070" stroke="black" stroke-width="7"/>
<path fill-rule="evenodd" clip-rule="evenodd" d="M136.146 849.073C166.014 843.324 189.405 791.524 189.405 755.719C189.405 717.767 163.123 687 130.703 687C98.2821 687 72 717.767 72 755.719C72 791.517 95.3824 843.305 125.244 849.07L116.017 859.614H145.369L136.146 849.073Z" fill="#00C2FF"/>
<path fill-rule="evenodd" clip-rule="evenodd" d="M1813.36 264.93C1842.65 256.724 1861.67 203.164 1858.7 167.483C1855.55 129.661 1826.81 101.179 1794.5 103.866C1762.19 106.554 1738.55 139.393 1741.7 177.215C1744.66 212.89 1772.26 262.561 1802.49 265.831L1794.17 277.103L1823.42 274.67L1813.36 264.93Z" fill="#00C2FF"/>
<path fill-rule="evenodd" clip-rule="evenodd" d="M1696.79 801.987C1726.26 794.449 1746.49 741.334 1744.33 705.595C1742.05 667.711 1713.96 638.583 1681.6 640.536C1649.23 642.489 1624.85 674.783 1627.14 712.667C1629.3 748.4 1655.76 798.684 1685.91 802.64L1677.34 813.721L1706.63 811.953L1696.79 801.987Z" fill="#9EFF62"/>
<path fill-rule="evenodd" clip-rule="evenodd" d="M1379.15 849.073C1409.01 843.324 1432.41 791.524 1432.41 755.719C1432.41 717.767 1406.12 687 1373.7 687C1341.28 687 1315 717.767 1315 755.719C1315 791.517 1338.38 843.305 1368.24 849.07L1359.02 859.614H1388.37L1379.15 849.073Z" fill="#EE84FF"/>
<path fill-rule="evenodd" clip-rule="evenodd" d="M1550.41 410.972C1580.17 404.726 1602.7 352.544 1602.1 316.745C1601.47 278.798 1574.68 248.472 1542.27 249.012C1509.85 249.552 1484.08 280.751 1484.72 318.699C1485.31 354.492 1509.55 405.883 1539.51 411.15L1530.46 421.846L1559.8 421.358L1550.41 410.972Z" fill="#FFEE54"/>
<path fill-rule="evenodd" clip-rule="evenodd" d="M1372.51 191.476C1402.58 186.909 1428 136.072 1429.41 100.295C1430.91 62.3722 1405.86 30.5931 1373.46 29.3147C1341.07 28.0363 1313.59 57.7428 1312.1 95.666C1310.68 131.436 1332.01 184.105 1361.62 191.043L1351.98 201.215L1381.31 202.373L1372.51 191.476Z" fill="#9EFF62"/>
<path fill-rule="evenodd" clip-rule="evenodd" d="M88.9558 187.653C119.371 188.018 152.687 141.971 159.877 106.896C167.498 69.7161 147.93 34.2984 116.17 27.788C84.4093 21.2777 52.4844 46.14 44.8631 83.3196C37.6746 118.388 50.1813 173.816 78.2764 185.46L67.121 193.937L95.8745 199.831L88.9558 187.653Z" fill="#9EFF62"/>
<path fill-rule="evenodd" clip-rule="evenodd" d="M308.503 452.416C338.571 447.817 363.932 396.953 365.307 361.175C366.763 323.25 341.682 291.498 309.285 290.253C276.888 289.009 249.445 318.744 247.988 356.669C246.614 392.44 267.991 445.087 297.609 451.994L287.985 462.176L317.315 463.303L308.503 452.416Z" fill="#EE84FF"/>
<path fill-rule="evenodd" clip-rule="evenodd" d="M510.366 187.012C539.99 180.111 561.36 127.446 559.975 91.668C558.507 53.7437 531.055 24.0164 498.659 25.2703C466.262 26.5241 441.19 58.2842 442.658 96.2086C444.042 131.98 469.41 182.824 499.472 187.43L490.66 198.323L519.99 197.188L510.366 187.012Z" fill="#00C2FF"/>
<path fill-rule="evenodd" clip-rule="evenodd" d="M523.663 872.803C553.317 866.033 574.919 813.462 573.692 777.679C572.391 739.749 545.07 709.901 512.668 711.012C480.267 712.123 455.055 743.773 456.355 781.703C457.582 817.48 482.726 868.435 512.767 873.174L503.908 884.028L533.242 883.022L523.663 872.803Z" fill="#FFEE54"/>
</svg>
