<svg width="1472" height="976" viewBox="0 0 1472 976" fill="none" xmlns="http://www.w3.org/2000/svg">
<mask id="mask0_206_379" style="mask-type:alpha" maskUnits="userSpaceOnUse" x="0" y="0" width="1472" height="976">
<rect width="1472" height="976" fill="#89D1F0"/>
</mask>
<g mask="url(#mask0_206_379)">
<path d="M665.949 956.37C658.749 953.57 651.949 959.537 649.449 962.87C644.782 963.204 638.149 961.07 648.949 949.87C659.749 938.67 676.782 930.87 683.949 928.37C696.449 918.37 720.949 895.37 718.949 883.37C716.449 868.37 715.949 856.37 722.949 857.87C729.949 859.37 734.949 873.37 742.449 856.87C748.449 843.67 753.282 839.037 754.949 838.37C760.282 836.704 774.449 834.07 788.449 836.87C805.949 840.37 814.949 840.37 817.949 830.87C820.949 821.37 821.949 815.87 828.949 812.37C835.949 808.87 832.449 803.87 826.949 805.37C821.449 806.87 813.949 819.37 800.449 820.87C786.949 822.37 767.449 809.37 763.449 798.37C759.449 787.37 752.449 808.87 740.949 805.37C729.449 801.87 739.449 799.37 743.449 794.87C747.449 790.37 738.449 780.87 727.949 784.87C717.449 788.87 703.449 793.37 695.449 800.87C687.449 808.37 660.949 779.87 668.449 773.87C675.949 767.87 699.949 750.37 719.449 742.87C738.949 735.37 748.949 709.87 747.449 700.87C745.949 691.87 738.449 687.37 741.449 673.87C743.849 663.07 734.449 663.37 729.449 664.87C724.449 669.037 712.849 677.17 706.449 676.37C698.449 675.37 701.449 670.87 705.949 667.87C710.449 664.87 727.949 657.37 727.949 645.87C727.949 634.37 719.949 637.87 710.949 627.87C701.949 617.87 710.449 608.37 719.449 608.87C728.449 609.37 727.949 613.37 733.949 619.37C739.949 625.37 738.449 632.37 749.949 625.37C761.449 618.37 764.449 617.87 777.449 619.37C790.449 620.87 796.449 618.37 800.949 607.87C804.549 599.47 805.449 588.037 805.449 583.37C803.116 576.037 799.549 559.87 803.949 553.87C809.449 546.37 826.449 536.87 822.449 524.87C818.449 512.87 806.449 536.87 794.449 532.87C782.449 528.87 766.449 509.87 765.949 495.37C765.549 483.77 773.782 468.87 777.949 462.87C786.282 459.537 801.549 451.87 795.949 447.87C788.949 442.87 780.449 439.87 769.449 446.37C758.449 452.87 765.449 465.37 747.449 468.37C729.449 471.37 731.949 457.87 721.949 460.37C711.949 462.87 728.449 488.37 708.949 474.87C689.449 461.37 695.449 463.87 684.949 461.37C674.449 458.87 674.949 445.37 680.949 433.37C686.949 421.37 702.949 411.87 702.449 395.37C701.949 378.87 688.449 385.87 685.449 372.87C682.449 359.87 683.449 348.37 689.449 346.37L699.949 345.37C703.283 341.704 707.949 332.37 699.949 324.37C691.949 316.37 685.283 323.37 682.949 327.87C681.283 335.037 675.549 351.47 665.949 359.87C653.949 370.37 646.449 331.87 647.449 316.37C648.449 300.87 639.949 307.87 623.949 305.87C607.949 303.87 595.449 276.87 614.949 260.37C630.549 247.17 632.116 233.87 630.949 228.87C613.749 180.47 625.115 154.704 632.949 147.87C639.782 147.87 654.249 139.77 657.449 107.37C660.649 74.9705 671.782 68.2038 676.949 68.8705C688.115 72.7038 717.749 77.7705 746.949 67.3705C776.149 56.9705 780.449 64.0372 778.949 68.8705C778.949 77.2038 777.049 94.8705 769.449 98.8705C759.949 103.87 741.949 124.37 732.949 134.87C723.949 145.37 734.949 142.37 739.949 146.37C743.949 149.57 736.949 157.037 732.949 160.37C730.449 163.87 727.349 171.17 734.949 172.37C742.549 173.57 768.782 165.87 780.949 161.87C798.449 159.037 836.749 155.27 849.949 162.87C863.149 170.47 851.449 202.037 843.949 216.87C841.949 232.37 833.349 266.37 814.949 278.37C796.549 290.37 798.615 297.704 801.949 299.87C807.615 300.537 818.749 303.27 817.949 308.87C816.949 315.87 805.949 316.37 794.949 317.37C783.949 318.37 793.449 332.37 778.449 331.87C766.449 331.47 755.449 332.704 751.449 333.37C749.615 334.537 750.649 337.27 769.449 338.87C792.949 340.87 785.949 335.37 807.449 328.87C828.949 322.37 860.449 364.87 874.449 373.37C888.449 381.87 880.949 420.87 901.449 452.37C921.949 483.87 935.449 481.87 956.949 493.87C974.149 503.47 978.449 529.537 978.449 541.37C979.115 550.87 985.249 573.77 1004.45 589.37C1023.65 604.97 1020.78 619.537 1016.95 624.87C1010.45 630.537 1000.55 643.271 1012.95 648.87C1025.35 654.47 1032.12 641.87 1033.95 634.87C1048.12 631.537 1080.85 629.37 1098.45 647.37C1116.05 665.37 1111.78 702.537 1107.45 718.87C1104.45 728.204 1095.85 747.57 1085.45 750.37C1075.05 753.17 1070.12 758.537 1068.95 760.87C1069.62 767.537 1068.75 781.87 1059.95 785.87C1051.15 789.87 1050.95 796.204 1051.95 798.87C1057.62 799.87 1070.15 801.07 1074.95 797.87C1080.95 793.87 1101.95 789.87 1104.45 791.87C1106.95 793.87 1105.45 815.37 1102.95 819.37C1100.45 823.37 1089.45 825.87 1083.45 828.37C1077.45 830.87 1079.45 834.87 1078.95 839.87C1078.45 844.87 1073.95 844.87 1066.95 844.37C1059.95 843.87 1041.95 855.37 1040.45 859.87C1038.95 864.37 1035.95 870.37 1032.95 866.87C1030.55 864.07 1020.95 862.37 1016.45 861.87C1009.12 861.204 992.149 861.271 982.949 866.87C973.749 872.47 965.115 872.537 961.949 871.87C962.782 867.204 962.249 859.271 953.449 864.87C944.649 870.47 934.115 865.87 929.949 862.87C930.782 870.87 929.349 885.67 916.949 880.87C904.549 876.07 893.782 887.87 889.949 894.37C882.782 897.204 865.649 901.17 854.449 894.37C840.449 885.87 816.949 891.37 801.949 897.87C789.949 903.07 789.282 921.37 790.449 929.87C787.615 937.537 779.649 950.17 770.449 939.37C761.249 928.57 740.615 928.537 731.449 929.87C727.282 933.87 716.249 941.87 705.449 941.87C694.649 941.87 687.615 949.204 685.449 952.87C687.115 956.204 688.749 963.87 681.949 967.87C673.449 972.87 674.949 959.87 665.949 956.37Z" fill="#BAE88F"/>
<path d="M1015.5 803.5C1007 805 1015 812.5 1004 815C1001.83 815.667 996.999 816.3 994.999 813.5C992.499 810 994.999 808.5 986.499 809C977.999 809.5 976.999 803.5 975.499 798C973.999 792.5 972.499 790 966.999 785C961.499 780 966.999 775 971.499 773.5C975.999 772 973.999 780.5 981.499 776C988.999 771.5 999.499 774 1012 773.5C1024.5 773 1031 783.5 1031.5 791C1032 798.5 1024 802 1015.5 803.5Z" fill="#FDEECD"/>
<path d="M877 708C876 707.5 868.5 706.5 868.5 697.5C867.833 690.667 868.6 677 877 677C887.5 677 895 695 894 703C893 711 878 708.5 877 708Z" fill="#FDEECD"/>
<path d="M828.5 611.5C827.166 611.167 824.499 610.5 808.499 612.5C799 613.687 802.5 604.667 806.499 602C810.999 599 811.8 597.7 823 590.5C837 581.5 851 582 861 582.5C871 583 873 589 865.5 600.5C859.5 609.7 838.333 611.667 828.5 611.5Z" fill="#FDEECD"/>
<path d="M735.999 361C727.599 367 721.499 364.5 719.499 362.5C716.499 360.167 712.299 354.2 719.499 349C726.699 343.8 738.499 345.167 743.499 346.5C744.499 348.833 744.399 355 735.999 361Z" fill="#FDEECD"/>
<path d="M943.5 865C939.5 865.8 935.167 863 933.5 861.5C932 860.333 928.2 858.8 925 862C921 866 918 860 919 857.5C920 855 926.827 850.567 932.5 850C937.5 849.5 934.501 848 953.5 857C959 859.605 948.5 864 943.5 865Z" fill="#FDEECD"/>
<path d="M1118 932.5C1112.4 951.3 1049 978.333 1018 989.5V1075.5L1658 1052.5L1592 -78.5L1258.5 -86L1211 -31.5C1211.33 -27 1213.9 -13.6 1221.5 4C1231 26 1270.5 69.5 1332.5 63.5C1394.5 57.4999 1390.5 2.99998 1399.5 -18C1406.7 -34.8 1422.83 -34 1430 -31.5L1474.5 -18L1485 63.5C1479.67 80.6666 1464.1 117.2 1444.5 126C1420 137 1395.5 175 1410.5 229.5C1425.5 284 1455.5 343 1485 364.5C1514.5 386 1502 447 1499.5 450.5C1497 454 1498 481.5 1455.5 489C1421.5 495 1381.33 523.5 1365.5 537C1339.17 554.833 1285.6 601 1282 643C1277.5 695.5 1292.5 759 1202 796C1111.5 833 1125 909 1118 932.5Z" fill="#BAE88F"/>
<path d="M615.999 599C624.499 611.5 622.999 654 611.999 686C607.499 697 606.999 708.5 601.499 717C594.708 727.495 620.499 746 598.499 742.5C576.499 739 574.999 745.5 551.499 745C527.999 744.5 509.999 759 492.999 775.5C475.999 792 454.999 797.5 415.499 809C375.999 820.5 350.999 790.5 338.499 769C325.999 747.5 358.999 721 368.999 713.5C378.999 706 372.999 684.5 394.999 675.5C416.999 666.5 404.999 649 420.999 632.5C436.999 616 399.999 617 384.999 613C369.999 609 360.999 605.5 374.499 584.5C387.999 563.5 376 564 367.5 545C359 526 374 513 388.5 510.5C403 508 430.5 520.5 448 519C465.5 517.5 477 500 484.5 494C492 488 490 483.5 477 486.5C464 489.5 459.499 497 454.499 477.5C449.499 458 471.999 448.5 492.999 429C513.999 409.5 529.499 409.5 545.999 409.5C562.499 409.5 553.499 423.5 568.499 429C583.499 434.5 585.499 422.5 605.999 423.5C626.499 424.5 648.999 466.5 652.999 490C656.999 513.5 643.499 536.5 620.499 547.5C597.499 558.5 607.499 586.5 615.999 599Z" fill="#BAE88F"/>
</g>
</svg>
