<svg width="596" height="124" viewBox="0 0 596 124" fill="none" xmlns="http://www.w3.org/2000/svg">
<g clip-path="url(#clip0_309_72)">
<path fill-rule="evenodd" clip-rule="evenodd" d="M63.3108 0C28.3016 0 0 28.4167 0 63.572C0 91.6735 18.1338 115.461 43.2901 123.88C46.4353 124.513 47.5874 122.512 47.5874 120.829C47.5874 119.355 47.4837 114.303 47.4837 109.04C29.8722 112.83 26.2048 101.462 26.2048 101.462C23.3745 94.094 19.1809 92.2005 19.1809 92.2005C13.4166 88.3061 19.6008 88.3061 19.6008 88.3061C25.9948 88.7272 29.35 94.8316 29.35 94.8316C35.0092 104.514 44.1286 101.778 47.7974 100.094C48.3209 95.9889 49.9991 93.1473 51.781 91.5688C37.7345 90.095 22.9559 84.6223 22.9559 60.2033C22.9559 53.2567 25.47 47.5734 29.4536 43.1533C28.8251 41.5749 26.6233 35.0481 30.0834 26.3125C30.0834 26.3125 35.4291 24.6282 47.4824 32.838C52.6429 31.4465 57.9648 30.7386 63.3108 30.7326C68.6564 30.7326 74.1058 31.4702 79.1378 32.838C91.1925 24.6282 96.5381 26.3125 96.5381 26.3125C99.9982 35.0481 97.7952 41.5749 97.1666 43.1533C101.255 47.5734 103.666 53.2567 103.666 60.2033C103.666 84.6223 88.887 89.9891 74.7356 91.5688C77.0423 93.5683 79.0329 97.3568 79.0329 103.357C79.0329 111.882 78.9292 118.724 78.9292 120.828C78.9292 122.512 80.0826 124.513 83.2265 123.881C108.383 115.46 126.517 91.6735 126.517 63.572C126.62 28.4167 98.215 0 63.3108 0Z" fill="white"/>
</g>
<path d="M134.64 96.216L160.864 24.848H173.272L146.96 96.216H134.64ZM196.808 89.792C193.288 89.792 190.091 89.2347 187.216 88.12C184.341 86.9467 181.848 85.2747 179.736 83.104C177.683 80.9333 176.099 78.352 174.984 75.36C173.928 72.368 173.4 69.0533 173.4 65.416C173.4 60.4293 174.368 56.1173 176.304 52.48C178.24 48.8427 180.997 46.0267 184.576 44.032C188.155 41.9787 192.379 40.952 197.248 40.952C201.296 40.952 204.875 41.7147 207.984 43.24C211.152 44.7653 213.675 46.8773 215.552 49.576C217.429 52.2747 218.456 55.4133 218.632 58.992H205.96C205.725 57.3493 205.168 55.9707 204.288 54.856C203.467 53.7413 202.411 52.92 201.12 52.392C199.888 51.8053 198.48 51.512 196.896 51.512C194.667 51.512 192.76 52.0987 191.176 53.272C189.592 54.3867 188.419 56 187.656 58.112C186.893 60.1653 186.512 62.6 186.512 65.416C186.512 68.5253 186.923 71.1067 187.744 73.16C188.624 75.1547 189.827 76.68 191.352 77.736C192.936 78.7333 194.755 79.232 196.808 79.232C198.685 79.232 200.269 78.9093 201.56 78.264C202.909 77.6187 203.965 76.7093 204.728 75.536C205.549 74.3627 206.019 73.0427 206.136 71.576H218.72C218.544 75.272 217.488 78.4987 215.552 81.256C213.675 83.9547 211.123 86.0667 207.896 87.592C204.669 89.0587 200.973 89.792 196.808 89.792ZM247.517 89.792C243.939 89.792 240.712 89.264 237.837 88.208C234.963 87.0933 232.469 85.48 230.357 83.368C228.245 81.256 226.632 78.704 225.517 75.712C224.403 72.6613 223.845 69.2293 223.845 65.416C223.845 60.5467 224.784 56.2933 226.661 52.656C228.539 48.96 231.237 46.0853 234.757 44.032C238.277 41.9787 242.531 40.952 247.517 40.952C251.037 40.952 254.235 41.5093 257.109 42.624C259.984 43.7387 262.448 45.352 264.501 47.464C266.613 49.576 268.227 52.128 269.341 55.12C270.515 58.112 271.101 61.544 271.101 65.416C271.101 70.2267 270.163 74.48 268.285 78.176C266.408 81.8133 263.709 84.6587 260.189 86.712C256.728 88.7653 252.504 89.792 247.517 89.792ZM247.429 79.32C249.541 79.32 251.389 78.8213 252.973 77.824C254.616 76.768 255.848 75.2133 256.669 73.16C257.549 71.1067 257.989 68.5253 257.989 65.416C257.989 63.0693 257.755 61.0453 257.285 59.344C256.816 57.584 256.112 56.1173 255.173 54.944C254.235 53.7707 253.12 52.92 251.829 52.392C250.539 51.8053 249.101 51.512 247.517 51.512C245.405 51.512 243.528 52.0107 241.885 53.008C240.301 54.0053 239.069 55.5307 238.189 57.584C237.309 59.6373 236.869 62.248 236.869 65.416C236.869 67.7627 237.104 69.816 237.573 71.576C238.101 73.2773 238.835 74.7147 239.773 75.888C240.712 77.0027 241.827 77.8533 243.117 78.44C244.408 79.0267 245.845 79.32 247.429 79.32ZM279.341 89V41.832H291.749L292.277 50.368H292.805C294.096 47.2 296.09 44.8533 298.789 43.328C301.488 41.744 304.509 40.952 307.853 40.952C310.2 40.952 312.37 41.3333 314.365 42.096C316.418 42.8 318.178 43.9147 319.645 45.44C321.17 46.9653 322.344 48.9893 323.165 51.512C324.045 53.976 324.485 56.968 324.485 60.488V89H311.549V63.304C311.549 60.664 311.226 58.464 310.581 56.704C309.994 54.944 309.056 53.6533 307.765 52.832C306.474 51.952 304.773 51.512 302.661 51.512C300.432 51.512 298.554 52.04 297.029 53.096C295.504 54.152 294.33 55.5307 293.509 57.232C292.688 58.9333 292.277 60.7813 292.277 62.776V89H279.341ZM325.434 103.96V94.104H329.042C330.802 94.104 332.034 93.6933 332.738 92.872C333.501 92.0507 333.882 90.7307 333.882 88.912V41.832H346.818V90.056C346.818 92.9307 346.349 95.3947 345.41 97.448C344.53 99.56 343.034 101.173 340.922 102.288C338.869 103.403 336.141 103.96 332.738 103.96H325.434ZM333.794 35.76V24.848H346.818V35.76H333.794ZM373.904 89.792C371.088 89.792 368.506 89.2933 366.16 88.296C363.872 87.2987 361.877 85.7733 360.176 83.72C358.533 81.6667 357.272 79.1147 356.392 76.064C355.512 73.0133 355.072 69.464 355.072 65.416C355.072 59.96 355.834 55.4427 357.36 51.864C358.944 48.2267 361.144 45.4987 363.96 43.68C366.834 41.8613 370.149 40.952 373.904 40.952C376.368 40.952 378.568 41.3333 380.504 42.096C382.498 42.8587 384.2 43.9147 385.608 45.264C387.074 46.6133 388.16 48.1973 388.864 50.016H389.568L390.096 41.832H402.504V89H389.568V80.728H388.864C387.808 83.4853 385.96 85.6853 383.32 87.328C380.68 88.9707 377.541 89.792 373.904 89.792ZM378.832 79.32C381.237 79.32 383.202 78.7627 384.728 77.648C386.312 76.5333 387.485 75.096 388.248 73.336C389.01 71.5173 389.392 69.6107 389.392 67.616V63.128C389.392 61.0747 389.01 59.168 388.248 57.408C387.485 55.648 386.312 54.2107 384.728 53.096C383.202 51.9813 381.237 51.424 378.832 51.424C376.72 51.424 374.872 51.9227 373.288 52.92C371.704 53.9173 370.472 55.4427 369.592 57.496C368.712 59.5493 368.272 62.1893 368.272 65.416C368.272 68.5253 368.712 71.136 369.592 73.248C370.472 75.3013 371.704 76.8267 373.288 77.824C374.872 78.8213 376.72 79.32 378.832 79.32ZM413.575 89V41.832H425.279L425.807 49.4H426.247C427.303 46.3493 428.975 44.2373 431.263 43.064C433.61 41.832 436.279 41.216 439.271 41.216C439.799 41.216 440.269 41.216 440.679 41.216C441.09 41.216 441.501 41.216 441.911 41.216V53.36C441.618 53.36 441.207 53.36 440.679 53.36C440.151 53.36 439.594 53.36 439.007 53.36C436.133 53.36 433.786 53.8 431.967 54.68C430.149 55.5013 428.799 56.7333 427.919 58.376C427.039 60.0187 426.57 62.0133 426.511 64.36V89H413.575ZM463.794 89.792C460.978 89.792 458.397 89.2933 456.05 88.296C453.762 87.2987 451.768 85.7733 450.066 83.72C448.424 81.6667 447.162 79.1147 446.282 76.064C445.402 73.0133 444.962 69.464 444.962 65.416C444.962 59.96 445.725 55.4427 447.25 51.864C448.834 48.2267 451.034 45.4987 453.85 43.68C456.725 41.8613 460.04 40.952 463.794 40.952C466.258 40.952 468.458 41.3333 470.394 42.096C472.389 42.8587 474.09 43.9147 475.498 45.264C476.965 46.6133 478.05 48.1973 478.754 50.016H479.458V24.848H492.394V89H479.898L479.458 80.728H478.754C477.698 83.4853 475.85 85.6853 473.21 87.328C470.57 88.9707 467.432 89.792 463.794 89.792ZM468.722 79.32C471.128 79.32 473.093 78.7627 474.618 77.648C476.202 76.5333 477.376 75.096 478.138 73.336C478.901 71.5173 479.282 69.6107 479.282 67.616V63.128C479.282 61.6027 479.077 60.136 478.666 58.728C478.256 57.32 477.61 56.088 476.73 55.032C475.85 53.9173 474.736 53.0373 473.386 52.392C472.037 51.7467 470.482 51.424 468.722 51.424C466.61 51.424 464.762 51.9227 463.178 52.92C461.594 53.9173 460.362 55.4427 459.482 57.496C458.602 59.5493 458.162 62.1893 458.162 65.416C458.162 68.5253 458.602 71.136 459.482 73.248C460.362 75.3013 461.594 76.8267 463.178 77.824C464.762 78.8213 466.61 79.32 468.722 79.32ZM524.146 89.792C519.218 89.792 514.994 88.7947 511.474 86.8C508.013 84.8053 505.343 82.0187 503.466 78.44C501.589 74.8027 500.65 70.5787 500.65 65.768C500.65 60.664 501.589 56.264 503.466 52.568C505.343 48.872 508.013 46.0267 511.474 44.032C514.935 41.9787 519.013 40.952 523.706 40.952C529.162 40.952 533.65 42.1547 537.17 44.56C540.69 46.9653 543.213 50.2213 544.738 54.328C546.263 58.4347 546.762 63.0987 546.234 68.32H513.41C513.351 70.784 513.762 72.896 514.642 74.656C515.581 76.416 516.871 77.7653 518.514 78.704C520.157 79.584 522.034 80.024 524.146 80.024C526.61 80.024 528.693 79.496 530.394 78.44C532.154 77.3253 533.269 75.8587 533.738 74.04H545.97C545.559 77.208 544.357 79.9653 542.362 82.312C540.426 84.6587 537.903 86.5067 534.794 87.856C531.685 89.1467 528.135 89.792 524.146 89.792ZM513.41 61.456L512.266 60.048H534.706L533.562 61.456C533.679 58.992 533.298 56.9973 532.418 55.472C531.597 53.888 530.423 52.7147 528.898 51.952C527.373 51.1307 525.642 50.72 523.706 50.72C521.594 50.72 519.775 51.16 518.25 52.04C516.725 52.92 515.522 54.1813 514.642 55.824C513.821 57.408 513.41 59.2853 513.41 61.456ZM563.61 89L547.506 41.744H561.41L568.538 67L571.354 78.264H571.794L574.61 67.088L581.738 41.744H595.73L579.714 89H563.61Z" fill="white"/>
<defs>
<clipPath id="clip0_309_72">
<rect width="127" height="124" fill="white"/>
</clipPath>
</defs>
</svg>
