<svg width="47" height="47" viewBox="0 0 47 47" fill="none" xmlns="http://www.w3.org/2000/svg">
<g clip-path="url(#clip0_111_21)">
<rect width="47" height="47" rx="7" fill="#1F1F1F"/>
<path d="M5.756 17V8.252H8.312V14.756H12.08V17H5.756ZM12.3705 17L15.1545 8.252H18.7065L21.5025 17H18.9705L18.5385 15.548H15.2625L14.8305 17H12.3705ZM15.8505 13.616H17.9505L17.2425 11.264L16.9425 10.208H16.8585L16.5585 11.264L15.8505 13.616ZM22.2326 17V8.252H26.7566C27.7966 8.252 28.5366 8.46 28.9766 8.876C29.4246 9.284 29.6486 9.824 29.6486 10.496C29.6486 10.984 29.5166 11.404 29.2526 11.756C28.9886 12.1 28.6126 12.316 28.1246 12.404V12.5C28.6526 12.532 29.0766 12.732 29.3966 13.1C29.7246 13.468 29.8886 13.94 29.8886 14.516C29.8886 15.116 29.7486 15.6 29.4686 15.968C29.1886 16.328 28.7926 16.592 28.2806 16.76C27.7766 16.92 27.1886 17 26.5166 17H22.2326ZM26.0606 10.076H24.7046V11.636H26.0606C26.3726 11.636 26.6086 11.576 26.7686 11.456C26.9366 11.328 27.0206 11.152 27.0206 10.928V10.76C27.0206 10.496 26.9326 10.316 26.7566 10.22C26.5806 10.124 26.3486 10.076 26.0606 10.076ZM26.1926 13.424H24.7046V15.176H26.1926C26.4966 15.176 26.7406 15.112 26.9246 14.984C27.1166 14.856 27.2126 14.664 27.2126 14.408V14.192C27.2126 13.96 27.1286 13.776 26.9606 13.64C26.8006 13.496 26.5446 13.424 26.1926 13.424ZM5.756 27V18.252H9.02L10.94 22.8L11.096 23.172H11.156V18.252H13.592V27H10.556L8.384 22.344L8.252 22.068H8.192V27H5.756ZM19.0916 27.12C18.0916 27.12 17.2676 26.932 16.6196 26.556C15.9796 26.18 15.5036 25.656 15.1916 24.984C14.8796 24.312 14.7236 23.532 14.7236 22.644V22.62C14.7236 21.652 14.9036 20.836 15.2636 20.172C15.6236 19.508 16.1316 19.004 16.7876 18.66C17.4436 18.316 18.2116 18.144 19.0916 18.144C19.9716 18.144 20.7396 18.316 21.3956 18.66C22.0516 19.004 22.5596 19.508 22.9196 20.172C23.2876 20.836 23.4716 21.652 23.4716 22.62V22.644C23.4716 23.532 23.3156 24.312 23.0036 24.984C22.6916 25.656 22.2116 26.18 21.5636 26.556C20.9156 26.932 20.0916 27.12 19.0916 27.12ZM19.0916 24.912C19.5956 24.912 20.0036 24.788 20.3156 24.54C20.6276 24.284 20.7836 23.888 20.7836 23.352V21.912C20.7836 21.44 20.6476 21.064 20.3756 20.784C20.1036 20.496 19.6756 20.352 19.0916 20.352C18.5076 20.352 18.0796 20.496 17.8076 20.784C17.5356 21.064 17.3996 21.44 17.3996 21.912V23.352C17.3996 23.888 17.5556 24.284 17.8676 24.54C18.1796 24.788 18.5876 24.912 19.0916 24.912ZM31.4158 20.436H28.9558V27H26.4118V20.436H23.9398V18.252H31.4158V20.436ZM32.2638 27V18.252H39.3318V20.412H34.8198V21.576H38.6958V23.592H34.8198V24.84H39.3318V27H32.2638ZM5.756 37V28.252H10.28C11.32 28.252 12.06 28.46 12.5 28.876C12.948 29.284 13.172 29.824 13.172 30.496C13.172 30.984 13.04 31.404 12.776 31.756C12.512 32.1 12.136 32.316 11.648 32.404V32.5C12.176 32.532 12.6 32.732 12.92 33.1C13.248 33.468 13.412 33.94 13.412 34.516C13.412 35.116 13.272 35.6 12.992 35.968C12.712 36.328 12.316 36.592 11.804 36.76C11.3 36.92 10.712 37 10.04 37H5.756ZM9.584 30.076H8.228V31.636H9.584C9.896 31.636 10.132 31.576 10.292 31.456C10.46 31.328 10.544 31.152 10.544 30.928V30.76C10.544 30.496 10.456 30.316 10.28 30.22C10.104 30.124 9.872 30.076 9.584 30.076ZM9.716 33.424H8.228V35.176H9.716C10.02 35.176 10.264 35.112 10.448 34.984C10.64 34.856 10.736 34.664 10.736 34.408V34.192C10.736 33.96 10.652 33.776 10.484 33.64C10.324 33.496 10.068 33.424 9.716 33.424ZM18.5994 37.12C17.5994 37.12 16.7754 36.932 16.1274 36.556C15.4874 36.18 15.0114 35.656 14.6994 34.984C14.3874 34.312 14.2314 33.532 14.2314 32.644V32.62C14.2314 31.652 14.4114 30.836 14.7714 30.172C15.1314 29.508 15.6394 29.004 16.2954 28.66C16.9514 28.316 17.7194 28.144 18.5994 28.144C19.4794 28.144 20.2474 28.316 20.9034 28.66C21.5594 29.004 22.0674 29.508 22.4274 30.172C22.7954 30.836 22.9794 31.652 22.9794 32.62V32.644C22.9794 33.532 22.8234 34.312 22.5114 34.984C22.1994 35.656 21.7194 36.18 21.0714 36.556C20.4234 36.932 19.5994 37.12 18.5994 37.12ZM18.5994 34.912C19.1034 34.912 19.5114 34.788 19.8234 34.54C20.1354 34.284 20.2914 33.888 20.2914 33.352V31.912C20.2914 31.44 20.1554 31.064 19.8834 30.784C19.6114 30.496 19.1834 30.352 18.5994 30.352C18.0154 30.352 17.5874 30.496 17.3154 30.784C17.0434 31.064 16.9074 31.44 16.9074 31.912V33.352C16.9074 33.888 17.0634 34.284 17.3754 34.54C17.6874 34.788 18.0954 34.912 18.5994 34.912ZM28.0916 37.12C27.0916 37.12 26.2676 36.932 25.6196 36.556C24.9796 36.18 24.5036 35.656 24.1916 34.984C23.8796 34.312 23.7236 33.532 23.7236 32.644V32.62C23.7236 31.652 23.9036 30.836 24.2636 30.172C24.6236 29.508 25.1316 29.004 25.7876 28.66C26.4436 28.316 27.2116 28.144 28.0916 28.144C28.9716 28.144 29.7396 28.316 30.3956 28.66C31.0516 29.004 31.5596 29.508 31.9196 30.172C32.2876 30.836 32.4716 31.652 32.4716 32.62V32.644C32.4716 33.532 32.3156 34.312 32.0036 34.984C31.6916 35.656 31.2116 36.18 30.5636 36.556C29.9156 36.932 29.0916 37.12 28.0916 37.12ZM28.0916 34.912C28.5956 34.912 29.0036 34.788 29.3156 34.54C29.6276 34.284 29.7836 33.888 29.7836 33.352V31.912C29.7836 31.44 29.6476 31.064 29.3756 30.784C29.1036 30.496 28.6756 30.352 28.0916 30.352C27.5076 30.352 27.0796 30.496 26.8076 30.784C26.5356 31.064 26.3996 31.44 26.3996 31.912V33.352C26.3996 33.888 26.5556 34.284 26.8676 34.54C27.1796 34.788 27.5876 34.912 28.0916 34.912ZM33.5998 37V28.252H36.1558V31.72L38.7238 28.252H41.8558L38.7838 31.96L41.9758 37H38.8798L36.9838 33.916L36.1558 34.84V37H33.5998Z" fill="white"/>
</g>
<defs>
<clipPath id="clip0_111_21">
<rect width="47" height="47" fill="white"/>
</clipPath>
</defs>
</svg>
