<svg width="170" height="38" viewBox="0 0 170 38" fill="none" xmlns="http://www.w3.org/2000/svg">
<g clip-path="url(#clip0_131_2)">
<path d="M121.309 18V0.503999H126.421V13.512H133.957V18H121.309ZM134.538 18L140.106 0.503999H147.21L152.802 18H147.738L146.874 15.096H140.322L139.458 18H134.538ZM141.498 11.232H145.698L144.282 6.528L143.682 4.416H143.514L142.914 6.528L141.498 11.232ZM154.262 18V0.503999H163.31C165.39 0.503999 166.87 0.919999 167.75 1.752C168.646 2.568 169.094 3.648 169.094 4.992C169.094 5.968 168.83 6.808 168.302 7.512C167.774 8.2 167.022 8.632 166.046 8.808V9C167.102 9.064 167.95 9.464 168.59 10.2C169.246 10.936 169.574 11.88 169.574 13.032C169.574 14.232 169.294 15.2 168.734 15.936C168.174 16.656 167.382 17.184 166.358 17.52C165.35 17.84 164.174 18 162.83 18H154.262ZM161.918 4.152H159.206V7.272H161.918C162.542 7.272 163.014 7.152 163.334 6.912C163.67 6.656 163.838 6.304 163.838 5.856V5.52C163.838 4.992 163.662 4.632 163.31 4.44C162.958 4.248 162.494 4.152 161.918 4.152ZM162.182 10.848H159.206V14.352H162.182C162.79 14.352 163.278 14.224 163.646 13.968C164.03 13.712 164.222 13.328 164.222 12.816V12.384C164.222 11.92 164.054 11.552 163.718 11.28C163.398 10.992 162.886 10.848 162.182 10.848ZM2.34013 38V20.504H10.0201L14.9401 29.336L15.2761 29.816H15.4921V20.504H21.1321V38H14.0521L8.67613 28.976L8.17213 28.16H7.95613V38H2.34013ZM33.9764 38.24C31.9284 38.24 30.0964 37.904 28.4804 37.232C26.8804 36.544 25.6164 35.552 24.6884 34.256C23.7764 32.944 23.3204 31.352 23.3204 29.48V29C23.3204 27.128 23.7764 25.544 24.6884 24.248C25.6164 22.952 26.8804 21.968 28.4804 21.296C30.0964 20.608 31.9284 20.264 33.9764 20.264C36.0404 20.264 37.8724 20.608 39.4724 21.296C41.0884 21.968 42.3524 22.952 43.2644 24.248C44.1924 25.544 44.6564 27.128 44.6564 29V29.48C44.6564 31.352 44.1924 32.944 43.2644 34.256C42.3524 35.552 41.0884 36.544 39.4724 37.232C37.8724 37.904 36.0404 38.24 33.9764 38.24ZM33.9764 33.704C35.4964 33.704 36.6244 33.376 37.3604 32.72C38.1124 32.064 38.4884 31.24 38.4884 30.248V28.256C38.4884 27.264 38.1124 26.44 37.3604 25.784C36.6244 25.128 35.4964 24.8 33.9764 24.8C32.4564 24.8 31.3204 25.128 30.5684 25.784C29.8324 26.44 29.4644 27.264 29.4644 28.256V30.248C29.4644 31.24 29.8324 32.064 30.5684 32.72C31.3204 33.376 32.4564 33.704 33.9764 33.704ZM62.6741 25.016H56.8181V38H51.0101V25.016H45.3461V20.504H62.6741V25.016ZM64.6136 38V20.504H81.4136V24.92H70.4936V27.152H79.8536V31.232H70.4936V33.584H81.3656V38H64.6136ZM83.8089 38V20.504H94.9689C95.8169 20.504 96.6489 20.552 97.4649 20.648C98.2809 20.728 99.0169 20.92 99.6729 21.224C100.329 21.512 100.849 21.96 101.233 22.568C101.633 23.176 101.833 24 101.833 25.04C101.833 26.016 101.521 26.856 100.897 27.56C100.273 28.248 99.3849 28.656 98.2329 28.784V29C99.4809 29.048 100.489 29.432 101.257 30.152C102.041 30.872 102.433 31.888 102.433 33.2C102.433 34.704 101.841 35.88 100.657 36.728C99.4889 37.576 97.8089 38 95.6169 38H83.8089ZM93.7689 24.2H89.4489V27.248H93.7689C94.5049 27.248 95.0249 27.128 95.3289 26.888C95.6329 26.632 95.7849 26.304 95.7849 25.904V25.544C95.7849 25.08 95.6009 24.744 95.2329 24.536C94.8649 24.312 94.3769 24.2 93.7689 24.2ZM94.0089 30.848H89.4489V34.304H94.0329C94.7529 34.304 95.3049 34.16 95.6889 33.872C96.0729 33.568 96.2649 33.2 96.2649 32.768V32.384C96.2649 31.856 96.0489 31.472 95.6169 31.232C95.2009 30.976 94.6649 30.848 94.0089 30.848ZM114.414 38.24C112.366 38.24 110.534 37.904 108.918 37.232C107.318 36.544 106.054 35.552 105.126 34.256C104.214 32.944 103.758 31.352 103.758 29.48V29C103.758 27.128 104.214 25.544 105.126 24.248C106.054 22.952 107.318 21.968 108.918 21.296C110.534 20.608 112.366 20.264 114.414 20.264C116.478 20.264 118.31 20.608 119.91 21.296C121.526 21.968 122.79 22.952 123.702 24.248C124.63 25.544 125.094 27.128 125.094 29V29.48C125.094 31.352 124.63 32.944 123.702 34.256C122.79 35.552 121.526 36.544 119.91 37.232C118.31 37.904 116.478 38.24 114.414 38.24ZM114.414 33.704C115.934 33.704 117.062 33.376 117.798 32.72C118.55 32.064 118.926 31.24 118.926 30.248V28.256C118.926 27.264 118.55 26.44 117.798 25.784C117.062 25.128 115.934 24.8 114.414 24.8C112.894 24.8 111.758 25.128 111.006 25.784C110.27 26.44 109.902 27.264 109.902 28.256V30.248C109.902 31.24 110.27 32.064 111.006 32.72C111.758 33.376 112.894 33.704 114.414 33.704ZM137.101 38.24C135.053 38.24 133.221 37.904 131.605 37.232C130.005 36.544 128.741 35.552 127.813 34.256C126.901 32.944 126.445 31.352 126.445 29.48V29C126.445 27.128 126.901 25.544 127.813 24.248C128.741 22.952 130.005 21.968 131.605 21.296C133.221 20.608 135.053 20.264 137.101 20.264C139.165 20.264 140.997 20.608 142.597 21.296C144.213 21.968 145.477 22.952 146.389 24.248C147.317 25.544 147.781 27.128 147.781 29V29.48C147.781 31.352 147.317 32.944 146.389 34.256C145.477 35.552 144.213 36.544 142.597 37.232C140.997 37.904 139.165 38.24 137.101 38.24ZM137.101 33.704C138.621 33.704 139.749 33.376 140.485 32.72C141.237 32.064 141.613 31.24 141.613 30.248V28.256C141.613 27.264 141.237 26.44 140.485 25.784C139.749 25.128 138.621 24.8 137.101 24.8C135.581 24.8 134.445 25.128 133.693 25.784C132.957 26.44 132.589 27.264 132.589 28.256V30.248C132.589 31.24 132.957 32.064 133.693 32.72C134.445 33.376 135.581 33.704 137.101 33.704ZM149.973 38V20.504H155.853V27.44L162.597 20.504H169.893L162.213 27.872L170.157 38H162.981L158.205 31.712L155.853 33.608V38H149.973Z" fill="#FFFFFF"/>
<path d="M6.232 18.24C5.48 18.24 4.824 18.08 4.264 17.76C3.72 17.424 3.264 16.904 2.896 16.2C2.528 15.496 2.248 14.576 2.056 13.44C1.88 12.288 1.792 10.896 1.792 9.264C1.792 7.6 1.88 6.2 2.056 5.064C2.248 3.928 2.528 3.008 2.896 2.304C3.28 1.6 3.76 1.088 4.336 0.767999C4.912 0.447999 5.576 0.287999 6.328 0.287999C7.336 0.271999 8.152 0.495999 8.776 0.959999C9.4 1.424 9.864 2.112 10.168 3.024C10.472 3.92 10.656 5.04 10.72 6.384H8.752C8.688 5.344 8.56 4.512 8.368 3.888C8.192 3.264 7.944 2.808 7.624 2.52C7.304 2.232 6.872 2.088 6.328 2.088C5.672 2.088 5.168 2.376 4.816 2.952C4.464 3.528 4.216 4.352 4.072 5.424C3.944 6.496 3.88 7.776 3.88 9.264C3.88 10.4 3.912 11.416 3.976 12.312C4.056 13.192 4.184 13.936 4.36 14.544C4.552 15.152 4.8 15.624 5.104 15.96C5.424 16.28 5.832 16.44 6.328 16.44C6.888 16.44 7.328 16.28 7.648 15.96C7.984 15.624 8.232 15.136 8.392 14.496C8.568 13.856 8.688 13.048 8.752 12.072H10.72C10.656 13.64 10.432 14.872 10.048 15.768C9.68 16.664 9.168 17.304 8.512 17.688C7.872 18.056 7.112 18.24 6.232 18.24ZM15.7246 18.24C14.9726 18.24 14.3086 18.08 13.7326 17.76C13.1726 17.44 12.7006 16.936 12.3166 16.248C11.9326 15.544 11.6446 14.616 11.4526 13.464C11.2766 12.312 11.1886 10.912 11.1886 9.264C11.1886 7.6 11.2766 6.2 11.4526 5.064C11.6446 3.912 11.9326 2.984 12.3166 2.28C12.7006 1.576 13.1726 1.072 13.7326 0.767999C14.3086 0.447999 14.9726 0.287999 15.7246 0.287999C16.4766 0.287999 17.1406 0.447999 17.7166 0.767999C18.2926 1.088 18.7646 1.6 19.1326 2.304C19.5166 2.992 19.7966 3.912 19.9726 5.064C20.1646 6.2 20.2606 7.6 20.2606 9.264C20.2606 10.912 20.1646 12.312 19.9726 13.464C19.7966 14.616 19.5166 15.544 19.1326 16.248C18.7646 16.936 18.2926 17.44 17.7166 17.76C17.1406 18.08 16.4766 18.24 15.7246 18.24ZM15.7246 16.44C16.3966 16.44 16.9086 16.152 17.2606 15.576C17.6126 14.984 17.8526 14.152 17.9806 13.08C18.1246 11.992 18.1966 10.72 18.1966 9.264C18.1966 8.112 18.1566 7.096 18.0766 6.216C18.0126 5.32 17.8846 4.568 17.6926 3.96C17.5166 3.352 17.2606 2.888 16.9246 2.568C16.6046 2.248 16.2046 2.088 15.7246 2.088C15.0686 2.088 14.5566 2.376 14.1886 2.952C13.8366 3.528 13.5966 4.352 13.4686 5.424C13.3406 6.496 13.2766 7.776 13.2766 9.264C13.2766 10.4 13.3086 11.416 13.3726 12.312C13.4526 13.192 13.5806 13.936 13.7566 14.544C13.9486 15.152 14.2046 15.624 14.5246 15.96C14.8446 16.28 15.2446 16.44 15.7246 16.44ZM21.1349 18V0.503999H23.4869L27.7349 13.968H27.8789L27.7349 8.064V0.503999H29.6549V18H27.3029L23.0549 4.608H22.9109L23.0309 10.272V18H21.1349ZM31.0705 18V0.503999H33.4225L37.6705 13.968H37.8145L37.6705 8.064V0.503999H39.5905V18H37.2385L32.9905 4.608H32.8465L32.9665 10.272V18H31.0705ZM45.0393 18.24C44.2873 18.24 43.6233 18.08 43.0473 17.76C42.4873 17.44 42.0153 16.936 41.6313 16.248C41.2473 15.544 40.9593 14.616 40.7673 13.464C40.5913 12.312 40.5033 10.912 40.5033 9.264C40.5033 7.6 40.5913 6.2 40.7673 5.064C40.9593 3.912 41.2473 2.984 41.6313 2.28C42.0153 1.576 42.4873 1.072 43.0473 0.767999C43.6233 0.447999 44.2873 0.287999 45.0393 0.287999C45.7913 0.287999 46.4553 0.447999 47.0313 0.767999C47.6073 1.088 48.0793 1.6 48.4473 2.304C48.8313 2.992 49.1113 3.912 49.2873 5.064C49.4793 6.2 49.5753 7.6 49.5753 9.264C49.5753 10.912 49.4793 12.312 49.2873 13.464C49.1113 14.616 48.8313 15.544 48.4473 16.248C48.0793 16.936 47.6073 17.44 47.0313 17.76C46.4553 18.08 45.7913 18.24 45.0393 18.24ZM45.0393 16.44C45.7113 16.44 46.2233 16.152 46.5753 15.576C46.9273 14.984 47.1673 14.152 47.2953 13.08C47.4393 11.992 47.5113 10.72 47.5113 9.264C47.5113 8.112 47.4713 7.096 47.3913 6.216C47.3273 5.32 47.1993 4.568 47.0073 3.96C46.8313 3.352 46.5753 2.888 46.2393 2.568C45.9193 2.248 45.5193 2.088 45.0393 2.088C44.3833 2.088 43.8713 2.376 43.5033 2.952C43.1513 3.528 42.9113 4.352 42.7833 5.424C42.6553 6.496 42.5913 7.776 42.5913 9.264C42.5913 10.4 42.6233 11.416 42.6873 12.312C42.7673 13.192 42.8953 13.936 43.0713 14.544C43.2633 15.152 43.5193 15.624 43.8393 15.96C44.1593 16.28 44.5593 16.44 45.0393 16.44ZM50.4496 18V0.503999H54.2176C54.9376 0.503999 55.5696 0.591999 56.1136 0.767999C56.6736 0.943999 57.1456 1.224 57.5296 1.608C57.9136 1.992 58.2016 2.496 58.3936 3.12C58.6016 3.728 58.7056 4.464 58.7056 5.328C58.7056 6.352 58.5296 7.232 58.1776 7.968C57.8416 8.688 57.3536 9.184 56.7136 9.456V9.624C57.3056 9.768 57.7376 10.136 58.0096 10.728C58.2976 11.304 58.4416 12.112 58.4416 13.152V16.248C58.4416 16.552 58.4496 16.848 58.4656 17.136C58.4816 17.408 58.5296 17.696 58.6096 18H56.5696C56.4896 17.728 56.4336 17.44 56.4016 17.136C56.3856 16.832 56.3776 16.536 56.3776 16.248V13.272C56.3776 12.632 56.3136 12.12 56.1856 11.736C56.0736 11.352 55.8976 11.072 55.6576 10.896C55.4176 10.72 55.1216 10.632 54.7696 10.632H52.4656V18H50.4496ZM52.4656 8.952H54.2176C55.1136 8.952 55.7376 8.648 56.0896 8.04C56.4576 7.416 56.6416 6.608 56.6416 5.616C56.6416 4.912 56.5616 4.32 56.4016 3.84C56.2576 3.344 56.0016 2.968 55.6336 2.712C55.2656 2.44 54.7536 2.304 54.0976 2.304H52.4656V8.952ZM64.177 18.168C63.889 18.168 63.625 18.136 63.385 18.072C63.161 18.024 62.985 17.952 62.857 17.856V16.176C62.921 16.256 63.025 16.32 63.169 16.368C63.313 16.416 63.465 16.44 63.625 16.44C63.913 16.44 64.137 16.376 64.297 16.248C64.457 16.12 64.569 15.928 64.633 15.672C64.697 15.416 64.729 15.088 64.729 14.688V0.503999H66.817V15.12C66.817 15.648 66.761 16.104 66.649 16.488C66.553 16.856 66.393 17.168 66.169 17.424C65.945 17.664 65.665 17.848 65.329 17.976C65.009 18.104 64.625 18.168 64.177 18.168ZM66.7808 18L70.2368 0.503999H73.0448L76.5248 18H74.5088L73.7168 13.824H69.5888L68.7968 18H66.7808ZM69.8288 12.192H73.4768L72.3008 5.88L71.7248 2.496H71.6048L71.0288 5.904L69.8288 12.192ZM76.8796 18V0.503999H80.6476C81.3676 0.503999 81.9996 0.591999 82.5436 0.767999C83.1036 0.943999 83.5756 1.224 83.9596 1.608C84.3436 1.992 84.6316 2.496 84.8236 3.12C85.0316 3.728 85.1356 4.464 85.1356 5.328C85.1356 6.352 84.9596 7.232 84.6076 7.968C84.2716 8.688 83.7836 9.184 83.1436 9.456V9.624C83.7356 9.768 84.1676 10.136 84.4396 10.728C84.7276 11.304 84.8716 12.112 84.8716 13.152V16.248C84.8716 16.552 84.8796 16.848 84.8956 17.136C84.9116 17.408 84.9596 17.696 85.0396 18H82.9996C82.9196 17.728 82.8636 17.44 82.8316 17.136C82.8156 16.832 82.8076 16.536 82.8076 16.248V13.272C82.8076 12.632 82.7436 12.12 82.6156 11.736C82.5036 11.352 82.3276 11.072 82.0876 10.896C81.8476 10.72 81.5516 10.632 81.1996 10.632H78.8956V18H76.8796ZM78.8956 8.952H80.6476C81.5436 8.952 82.1676 8.648 82.5196 8.04C82.8876 7.416 83.0716 6.608 83.0716 5.616C83.0716 4.912 82.9916 4.32 82.8316 3.84C82.6876 3.344 82.4316 2.968 82.0636 2.712C81.6956 2.44 81.1836 2.304 80.5276 2.304H78.8956V8.952ZM85.8542 18V0.503999H89.6222C90.3422 0.503999 90.9742 0.591999 91.5182 0.767999C92.0782 0.943999 92.5502 1.224 92.9342 1.608C93.3182 1.992 93.6062 2.496 93.7982 3.12C94.0062 3.728 94.1102 4.464 94.1102 5.328C94.1102 6.352 93.9342 7.232 93.5822 7.968C93.2462 8.688 92.7582 9.184 92.1182 9.456V9.624C92.7102 9.768 93.1422 10.136 93.4142 10.728C93.7022 11.304 93.8462 12.112 93.8462 13.152V16.248C93.8462 16.552 93.8542 16.848 93.8702 17.136C93.8862 17.408 93.9342 17.696 94.0142 18H91.9742C91.8942 17.728 91.8382 17.44 91.8062 17.136C91.7902 16.832 91.7822 16.536 91.7822 16.248V13.272C91.7822 12.632 91.7182 12.12 91.5902 11.736C91.4782 11.352 91.3022 11.072 91.0622 10.896C90.8222 10.72 90.5262 10.632 90.1742 10.632H87.8702V18H85.8542ZM87.8702 8.952H89.6222C90.5182 8.952 91.1422 8.648 91.4942 8.04C91.8622 7.416 92.0462 6.608 92.0462 5.616C92.0462 4.912 91.9662 4.32 91.8062 3.84C91.6622 3.344 91.4062 2.968 91.0382 2.712C90.6702 2.44 90.1582 2.304 89.5022 2.304H87.8702V8.952ZM94.8289 18V0.503999H101.309V2.304H96.5329L96.8449 2.016V8.472L96.5329 8.184H100.733V9.864H96.5329L96.8449 9.576V16.488L96.5329 16.2H101.309V18H94.8289ZM104.088 18V2.328H101.136V0.503999H109.128V2.328H106.152V18H104.088ZM112.219 18V2.328H109.267V0.503999H117.259V2.328H114.283V18H112.219Z" fill="#F6F6F6"/>
</g>
<defs>
<clipPath id="clip0_131_2">
<rect width="170" height="38" fill="white"/>
</clipPath>
</defs>
</svg>
