<svg width="214" height="214" viewBox="0 0 214 214" fill="none" xmlns="http://www.w3.org/2000/svg">
<g clip-path="url(#clip0_443_2)">
<circle cx="107" cy="107" r="107" fill="#9B9B9B"/>
<path fill-rule="evenodd" clip-rule="evenodd" d="M58.6015 58.6015C63.4035 53.7995 71.1891 53.7995 75.9911 58.6015L107 89.6104L138.009 58.6015C142.811 53.7995 150.596 53.7995 155.398 58.6015C160.201 63.4035 160.201 71.1891 155.398 75.9911L124.39 107L155.398 138.009C160.2 142.811 160.2 150.596 155.398 155.398C150.596 160.2 142.811 160.201 138.009 155.398L107 124.39L75.9911 155.398C71.1891 160.201 63.4035 160.201 58.6015 155.398C53.7995 150.596 53.7995 142.811 58.6015 138.009L89.6104 107L58.6015 75.9911C53.7995 71.1891 53.7995 63.4035 58.6015 58.6015Z" fill="#EDEDED"/>
</g>
<defs>
<clipPath id="clip0_443_2">
<rect width="214" height="214" fill="white"/>
</clipPath>
</defs>
</svg>
